<svg width="150" height="90" viewBox="0 0 150 90" fill="none" xmlns="http://www.w3.org/2000/svg">
<g clip-path="url(#clip0_415_1966)">
<path d="M12.4179 19.5259C16.6871 19.5259 20.148 16.0985 20.148 11.8706C20.148 7.64273 16.6871 4.21533 12.4179 4.21533C8.14863 4.21533 4.68774 7.64273 4.68774 11.8706C4.68774 16.0985 8.14863 19.5259 12.4179 19.5259Z" fill="#FF7C10"/>
<path d="M74.6129 90C115.82 90 149.226 88.6589 149.226 87.0045C149.226 85.3501 115.82 84.0089 74.6129 84.0089C33.4053 84.0089 0 85.3501 0 87.0045C0 88.6589 33.4053 90 74.6129 90Z" fill="#E6E6E6"/>
<path d="M18.9892 49.4631C29.4766 49.4631 37.9783 41.0436 37.9783 30.6577C37.9783 20.2718 29.4766 11.8523 18.9892 11.8523C8.50174 11.8523 0 20.2718 0 30.6577C0 41.0436 8.50174 49.4631 18.9892 49.4631Z" fill="#106EB3"/>
<path d="M20.8196 87.3005H16.9302L18.7032 27.8255L20.8196 87.3005Z" fill="#3F3D56"/>
<path d="M19.0462 39.0974L23.2217 33.3766L18.9891 40.5135L18.5315 39.7205L19.0462 39.0974Z" fill="#3F3D56"/>
<path d="M18.5888 44.875L14.4136 39.1542L18.6461 46.2911L19.1037 45.4981L18.5888 44.875Z" fill="#3F3D56"/>
<path d="M139.059 87.3631H135.169L136.942 27.8881L139.059 87.3631Z" fill="#3F3D56"/>
<path d="M137.286 39.16L141.461 33.4392L137.229 40.5761L136.771 39.7831L137.286 39.16Z" fill="#3F3D56"/>
<path d="M136.828 44.9376L132.653 39.2168L136.885 46.3537L137.343 45.5607L136.828 44.9376Z" fill="#3F3D56"/>
<path d="M77.1423 87.3531C96.679 87.3531 112.517 71.6688 112.517 52.3212C112.517 32.9736 96.679 17.2893 77.1423 17.2893C57.6057 17.2893 41.7681 32.9736 41.7681 52.3212C41.7681 71.6688 57.6057 87.3531 77.1423 87.3531Z" fill="#3F3D56"/>
<path d="M77.1424 84.4531C95.0618 84.4531 109.588 70.0671 109.588 52.3212C109.588 34.5752 95.0618 20.1893 77.1424 20.1893C59.2231 20.1893 44.6965 34.5752 44.6965 52.3212C44.6965 70.0671 59.2231 84.4531 77.1424 84.4531Z" fill="white"/>
<path d="M77.0253 56.7292C79.4189 56.7292 81.3593 54.8076 81.3593 52.4372C81.3593 50.0668 79.4189 48.1452 77.0253 48.1452C74.6318 48.1452 72.6914 50.0668 72.6914 52.4372C72.6914 54.8076 74.6318 56.7292 77.0253 56.7292Z" fill="#3F3D56"/>
<path d="M77.9623 21.8133H76.0881V25.2933H77.9623V21.8133Z" fill="#3F3D56"/>
<path d="M77.9623 79.5811H76.0881V83.0611H77.9623V79.5811Z" fill="#3F3D56"/>
<path d="M49.616 53.3652V51.5092H46.102V53.3652H49.616Z" fill="#3F3D56"/>
<path d="M107.948 53.3652V51.5092H104.434V53.3652H107.948Z" fill="#3F3D56"/>
<path d="M75.7759 54.3004L77.3775 50.6736L97.4464 61.6809L75.7759 54.3004Z" fill="#3F3D56"/>
<path d="M81.7106 8.82129H72.5742V19.2613H81.7106V8.82129Z" fill="#3F3D56"/>
<path d="M77.1423 11.7213C82.9645 11.7213 87.6843 10.4229 87.6843 8.82129C87.6843 7.21967 82.9645 5.9213 77.1423 5.9213C71.3202 5.9213 66.6003 7.21967 66.6003 8.82129C66.6003 10.4229 71.3202 11.7213 77.1423 11.7213Z" fill="#3F3D56"/>
<path d="M96.8794 58.5271L96.2937 59.3391C96.2937 59.3391 93.5996 62.4711 93.4825 60.9631C93.3654 59.4551 95.4738 58.4111 95.4738 58.4111L96.6451 57.7151L96.8794 58.5271Z" fill="#FFB8B8"/>
<path d="M113.553 61.2667L114.043 62.1384C114.043 62.1384 115.749 65.8901 114.322 65.3496C112.896 64.8091 112.845 62.4752 112.845 62.4752L112.711 61.1289L113.553 61.2667Z" fill="#FFB8B8"/>
<path d="M110.916 45.8097C112.886 45.8097 114.482 44.2284 114.482 42.2776C114.482 40.3269 112.886 38.7455 110.916 38.7455C108.946 38.7455 107.349 40.3269 107.349 42.2776C107.349 44.2284 108.946 45.8097 110.916 45.8097Z" fill="#2F2E41"/>
<path d="M110.584 71.2871L111.053 74.3031V75.2311H113.747V74.0711C113.747 74.0711 113.864 71.9831 113.395 71.4031C112.927 70.8231 110.584 71.2871 110.584 71.2871Z" fill="#FFB8B8"/>
<path d="M105.781 71.2871L106.25 74.3031V75.2311H108.944V74.0711C108.944 74.0711 109.061 71.9831 108.593 71.4031C108.124 70.8231 105.781 71.2871 105.781 71.2871Z" fill="#FFB8B8"/>
<path d="M107.594 47.0609C107.594 47.0609 106.558 47.6017 107.266 48.8321C107.974 50.0624 112.126 62.7908 112.126 62.7908L114.522 62.1173L112.409 54.0675L111.199 49.0081L107.594 47.0609Z" fill="#106EB3"/>
<path d="M110.525 45.9412C112.013 45.9412 113.219 44.7467 113.219 43.2732C113.219 41.7997 112.013 40.6052 110.525 40.6052C109.037 40.6052 107.831 41.7997 107.831 43.2732C107.831 44.7467 109.037 45.9412 110.525 45.9412Z" fill="#FFB8B8"/>
<path d="M111.755 43.6792L111.404 49.1312L108.944 47.3912C108.944 47.3912 109.764 44.1432 109.53 43.9112L111.755 43.6792Z" fill="#FFB8B8"/>
<path d="M111.755 48.6672L109.105 46.7239C109.105 46.7239 107.89 46.2312 107.539 46.8112C107.187 47.3912 105.43 55.9752 106.367 57.5992C106.367 57.5992 111.404 58.6432 112.458 58.0632L112.927 55.0472C112.927 55.0472 113.512 53.1912 112.575 52.0312L111.755 48.6672Z" fill="#106EB3"/>
<path d="M108.241 46.9272C108.241 46.9272 107.304 46.2312 106.484 47.3912C105.664 48.5512 95.8252 57.7152 95.8252 57.7152L97.4651 59.5712L103.907 54.2352L108.007 50.9872L108.241 46.9272Z" fill="#106EB3"/>
<path d="M112.517 58.0051C112.517 58.0051 106.718 56.9032 106.133 57.7152L106.016 58.9911C106.016 58.9911 104.727 61.4271 105.43 65.3711C106.133 69.3151 105.664 71.7511 105.664 71.7511C105.664 71.7511 108.827 71.4031 111.17 71.7511C113.512 72.0991 113.864 71.7511 113.864 71.7511L112.517 58.0051Z" fill="#2F2E41"/>
<path d="M113.981 74.7671L110.584 74.8831L111.755 83.5831C111.755 83.5831 110.818 87.295 111.872 87.527C112.605 87.6735 113.35 87.7512 114.098 87.759C114.098 87.759 115.152 88.803 116.324 88.687C117.101 88.5887 117.855 88.3529 118.549 87.991C118.549 87.991 118.783 87.295 117.963 87.063C117.143 86.831 114.918 86.135 114.449 83.6991L113.981 74.7671Z" fill="#2F2E41"/>
<path d="M109.178 74.7671L105.781 74.8831L106.953 83.5831C106.953 83.5831 106.016 87.295 107.07 87.527C107.803 87.6735 108.548 87.7512 109.295 87.759C109.295 87.759 110.35 88.803 111.521 88.687C112.299 88.5887 113.053 88.3529 113.747 87.991C113.747 87.991 113.981 87.295 113.161 87.063C112.341 86.831 110.115 86.1351 109.647 83.6991L109.178 74.7671Z" fill="#2F2E41"/>
<path d="M112.164 40.0217C112.979 40.0217 113.639 39.3673 113.639 38.5601C113.639 37.7529 112.979 37.0985 112.164 37.0985C111.348 37.0985 110.688 37.7529 110.688 38.5601C110.688 39.3673 111.348 40.0217 112.164 40.0217Z" fill="#2F2E41"/>
<path d="M114.131 37.7684C114.131 37.4071 113.996 37.0587 113.752 36.7902C113.508 36.5218 113.172 36.3524 112.809 36.3147C112.86 36.3095 112.911 36.3068 112.963 36.3068C113.354 36.3068 113.73 36.4608 114.006 36.7349C114.283 37.009 114.439 37.3808 114.439 37.7684C114.439 38.156 114.283 38.5278 114.006 38.8019C113.73 39.076 113.354 39.23 112.963 39.23C112.911 39.2299 112.86 39.2273 112.809 39.2221C113.172 39.1844 113.508 39.015 113.752 38.7466C113.996 38.4781 114.131 38.1297 114.131 37.7684Z" fill="#2F2E41"/>
<path d="M110.501 42.9903C111.859 42.9903 112.961 42.3359 112.961 41.5287C112.961 40.7215 111.859 40.0671 110.501 40.0671C109.143 40.0671 108.041 40.7215 108.041 41.5287C108.041 42.3359 109.143 42.9903 110.501 42.9903Z" fill="#2F2E41"/>
<path d="M149.245 7.01478C149.144 5.25554 148.416 3.58881 147.19 2.31176C145.964 1.03471 144.32 0.230348 142.551 0.042085C140.782 -0.146178 139.003 0.293896 137.531 1.28384C136.059 2.27379 134.99 3.74927 134.515 5.4472C134.424 5.44397 134.333 5.44035 134.241 5.44035C132.619 5.44065 131.041 5.96103 129.742 6.92366C128.444 7.88628 127.495 9.2394 127.037 10.7806C125.963 10.3129 124.761 10.2114 123.622 10.4921C122.483 10.7727 121.47 11.4196 120.741 12.3315H144.161C144.844 12.3334 145.52 12.1987 146.15 11.9356C146.779 11.6725 147.349 11.2863 147.824 10.8001C148.299 10.314 148.67 9.73785 148.915 9.10627C149.16 8.47468 149.274 7.80062 149.25 7.12443C149.249 7.08794 149.247 7.05139 149.245 7.01478Z" fill="#E6E6E6"/>
<path d="M129.666 22.6627C130.78 22.6627 131.683 21.7686 131.683 20.6656C131.683 19.5627 130.78 18.6686 129.666 18.6686C128.553 18.6686 127.65 19.5627 127.65 20.6656C127.65 21.7686 128.553 22.6627 129.666 22.6627Z" fill="#E6E6E6"/>
<path d="M135.755 17.6201C136.683 17.6201 137.434 16.8756 137.434 15.9572C137.434 15.0389 136.683 14.2944 135.755 14.2944C134.828 14.2944 134.076 15.0389 134.076 15.9572C134.076 16.8756 134.828 17.6201 135.755 17.6201Z" fill="#E6E6E6"/>
<path d="M143.95 26.9896C145.064 26.9896 145.967 26.0955 145.967 24.9925C145.967 23.8896 145.064 22.9955 143.95 22.9955C142.837 22.9955 141.934 23.8896 141.934 24.9925C141.934 26.0955 142.837 26.9896 143.95 26.9896Z" fill="#E6E6E6"/>
<path d="M128.658 36.1427C129.772 36.1427 130.675 35.2486 130.675 34.1456C130.675 33.0427 129.772 32.1486 128.658 32.1486C127.544 32.1486 126.642 33.0427 126.642 34.1456C126.642 35.2486 127.544 36.1427 128.658 36.1427Z" fill="#E6E6E6"/>
<path d="M143.95 47.6256C145.064 47.6256 145.967 46.7315 145.967 45.6286C145.967 44.5256 145.064 43.6315 143.95 43.6315C142.837 43.6315 141.934 44.5256 141.934 45.6286C141.934 46.7315 142.837 47.6256 143.95 47.6256Z" fill="#E6E6E6"/>
<path d="M140.754 84.1361C140.755 84.1145 140.758 84.0933 140.758 84.0715C140.758 83.7369 140.673 83.4075 140.512 83.1137C140.35 82.8199 140.116 82.5712 139.832 82.3904C139.547 82.2097 139.222 82.1027 138.885 82.0793C138.548 82.0559 138.21 82.117 137.903 82.2567C137.615 81.9274 137.226 81.7008 136.795 81.6115C136.364 81.5223 135.916 81.5753 135.519 81.7626C135.121 81.9498 134.797 82.2609 134.595 82.6482C134.394 83.0354 134.326 83.4775 134.402 83.9066C134.392 83.9064 134.382 83.9051 134.372 83.9051C134.051 83.9046 133.734 83.98 133.449 84.125C133.163 84.2701 132.916 84.4806 132.729 84.739C132.542 84.9974 132.42 85.2964 132.374 85.6109C132.327 85.9254 132.356 86.2464 132.46 86.5473C132.564 86.8482 132.739 87.1202 132.97 87.3407C133.201 87.5612 133.482 87.7238 133.79 87.8151C134.097 87.9064 134.422 87.9236 134.738 87.8653C135.054 87.8071 135.351 87.6751 135.604 87.4803C135.764 87.7891 136.003 88.0513 136.297 88.2408C136.59 88.4304 136.929 88.5409 137.279 88.5613C137.628 88.5818 137.978 88.5115 138.292 88.3575C138.606 88.2034 138.874 87.9709 139.07 87.6829C139.31 87.8557 139.585 87.974 139.877 88.0292C140.168 88.0844 140.468 88.0751 140.756 88.0021C141.043 87.9291 141.311 87.7941 141.539 87.6068C141.768 87.4195 141.952 87.1845 142.078 86.9186C142.205 86.6527 142.27 86.3624 142.27 86.0686C142.27 85.7747 142.204 85.4845 142.078 85.2187C141.951 84.9528 141.767 84.718 141.538 84.5308C141.309 84.3437 141.042 84.2089 140.754 84.1361Z" fill="#E6E6E6"/>
<path d="M145.799 38.4725C146.263 38.4725 146.639 38.1 146.639 37.6404C146.639 37.1809 146.263 36.8083 145.799 36.8083C145.335 36.8083 144.959 37.1809 144.959 37.6404C144.959 38.1 145.335 38.4725 145.799 38.4725Z" fill="#E6E6E6"/>
<path d="M140.421 18.5022C140.885 18.5022 141.262 18.1296 141.262 17.6701C141.262 17.2105 140.885 16.838 140.421 16.838C139.957 16.838 139.581 17.2105 139.581 17.6701C139.581 18.1296 139.957 18.5022 140.421 18.5022Z" fill="#E6E6E6"/>
<path d="M137.565 39.1382C138.029 39.1382 138.405 38.7657 138.405 38.3061C138.405 37.8465 138.029 37.474 137.565 37.474C137.101 37.474 136.724 37.8465 136.724 38.3061C136.724 38.7657 137.101 39.1382 137.565 39.1382Z" fill="#E6E6E6"/>
<path d="M138.237 38.3061C138.701 38.3061 139.077 37.9336 139.077 37.474C139.077 37.0144 138.701 36.6419 138.237 36.6419C137.773 36.6419 137.396 37.0144 137.396 37.474C137.396 37.9336 137.773 38.3061 138.237 38.3061Z" fill="#E6E6E6"/>
<path d="M138.741 37.474C139.205 37.474 139.581 37.1015 139.581 36.6419C139.581 36.1824 139.205 35.8098 138.741 35.8098C138.277 35.8098 137.901 36.1824 137.901 36.6419C137.901 37.1015 138.277 37.474 138.741 37.474Z" fill="#E6E6E6"/>
<path d="M136.724 44.4636C137.188 44.4636 137.564 44.0911 137.564 43.6315C137.564 43.172 137.188 42.7994 136.724 42.7994C136.26 42.7994 135.884 43.172 135.884 43.6315C135.884 44.0911 136.26 44.4636 136.724 44.4636Z" fill="#E6E6E6"/>
<path d="M149.16 53.7831C149.624 53.7831 150 53.4106 150 52.951C150 52.4915 149.624 52.1189 149.16 52.1189C148.696 52.1189 148.32 52.4915 148.32 52.951C148.32 53.4106 148.696 53.7831 149.16 53.7831Z" fill="#E6E6E6"/>
<path d="M131.179 54.2824C131.643 54.2824 132.019 53.9098 132.019 53.4503C132.019 52.9907 131.643 52.6182 131.179 52.6182C130.715 52.6182 130.339 52.9907 130.339 53.4503C130.339 53.9098 130.715 54.2824 131.179 54.2824Z" fill="#E6E6E6"/>
<path d="M132.187 28.6538C132.651 28.6538 133.027 28.2812 133.027 27.8217C133.027 27.3621 132.651 26.9896 132.187 26.9896C131.723 26.9896 131.347 27.3621 131.347 27.8217C131.347 28.2812 131.723 28.6538 132.187 28.6538Z" fill="#E6E6E6"/>
<path d="M136.052 43.6315C136.516 43.6315 136.892 43.259 136.892 42.7994C136.892 42.3399 136.516 41.9673 136.052 41.9673C135.588 41.9673 135.212 42.3399 135.212 42.7994C135.212 43.259 135.588 43.6315 136.052 43.6315Z" fill="#E6E6E6"/>
<path d="M135.212 42.3002C135.676 42.3002 136.052 41.9276 136.052 41.4681C136.052 41.0085 135.676 40.636 135.212 40.636C134.748 40.636 134.372 41.0085 134.372 41.4681C134.372 41.9276 134.748 42.3002 135.212 42.3002Z" fill="#E6E6E6"/>
</g>
<defs>
<clipPath id="clip0_415_1966">
<rect width="150" height="90" fill="white"/>
</clipPath>
</defs>
</svg>
