<svg width="134" height="130" viewBox="0 0 134 130" fill="none" xmlns="http://www.w3.org/2000/svg">
<g clip-path="url(#clip0_263_2178)">
<path d="M85.0688 29.2365H48.9616C48.1388 29.2375 47.35 29.5628 46.7681 30.1411C46.1863 30.7193 45.859 31.5033 45.858 32.3211V112.078L45.4442 112.204L36.5865 114.9C36.1667 115.027 35.7133 114.984 35.3258 114.779C34.9383 114.574 34.6483 114.225 34.5196 113.808L8.17208 28.2721C8.04386 27.8549 8.08756 27.4041 8.29358 27.0189C8.4996 26.6337 8.85107 26.3455 9.27076 26.2177L22.9204 22.0638L62.4912 10.0257L76.1408 5.87176C76.3485 5.80822 76.5668 5.78601 76.7832 5.80642C76.9995 5.82682 77.2097 5.88943 77.4017 5.99066C77.5937 6.0919 77.7637 6.22976 77.9021 6.39638C78.0404 6.56299 78.1443 6.75508 78.2078 6.96165L84.9426 28.8253L85.0688 29.2365Z" fill="#F2F2F2"/>
<path d="M92.9477 28.8255L84.8308 2.47479C84.6957 2.03574 84.475 1.62744 84.1811 1.27322C83.8872 0.918998 83.526 0.625805 83.1181 0.410389C82.7102 0.194972 82.2635 0.0615543 81.8037 0.0177636C81.3438 -0.0260271 80.8798 0.0206676 80.4382 0.155175L61.2476 5.99328L21.6789 18.0335L2.48837 23.8737C1.59687 24.1457 0.850415 24.7582 0.412837 25.5767C-0.0247412 26.3952 -0.117689 27.3528 0.1544 28.2394L27.8964 118.295C28.1174 119.011 28.5634 119.637 29.1689 120.082C29.7744 120.528 30.5076 120.768 31.2608 120.769C31.6094 120.769 31.956 120.717 32.289 120.615L45.4441 116.613L45.858 116.486V116.056L45.4441 116.181L32.167 120.222C31.3801 120.46 30.5302 120.379 29.8037 119.995C29.0772 119.612 28.5334 118.957 28.2916 118.176L0.551745 28.1181C0.431964 27.7308 0.390218 27.3239 0.428894 26.9206C0.46757 26.5173 0.585906 26.1256 0.777133 25.7678C0.96836 25.41 1.22872 25.0932 1.5433 24.8356C1.85788 24.578 2.2205 24.3846 2.6104 24.2664L21.801 18.4263L61.3698 6.38811L80.5603 0.54795C80.856 0.45825 81.1635 0.412514 81.4727 0.412227C82.1363 0.413708 82.782 0.626331 83.3151 1.01895C83.8483 1.41157 84.241 1.96356 84.4357 2.59406L92.5153 28.8255L92.6436 29.2367H93.074L92.9477 28.8255Z" fill="#3F3D56"/>
<path d="M25.3834 26.285C24.9846 26.2847 24.5964 26.1574 24.2757 25.9218C23.9551 25.6861 23.7188 25.3546 23.6016 24.9757L20.9366 16.3241C20.865 16.0917 20.8401 15.8476 20.8635 15.6056C20.8868 15.3637 20.9579 15.1287 21.0726 14.914C21.1873 14.6994 21.3435 14.5093 21.5321 14.3546C21.7208 14.2 21.9382 14.0838 22.1721 14.0127L58.575 2.93613C59.0472 2.79291 59.5573 2.84176 59.9934 3.07195C60.4294 3.30214 60.7557 3.69487 60.9007 4.16395L63.5658 12.8157C63.7098 13.285 63.6606 13.792 63.429 14.2253C63.1974 14.6587 62.8023 14.983 62.3304 15.1272L25.9274 26.2037C25.7511 26.2575 25.5678 26.2849 25.3834 26.285Z" fill="#FF7C10"/>
<path d="M39.3439 9.24451C41.6294 9.24451 43.4821 7.40315 43.4821 5.13171C43.4821 2.86028 41.6294 1.01892 39.3439 1.01892C37.0585 1.01892 35.2058 2.86028 35.2058 5.13171C35.2058 7.40315 37.0585 9.24451 39.3439 9.24451Z" fill="#FF7C10"/>
<path d="M39.344 7.73604C40.7912 7.73604 41.9644 6.57003 41.9644 5.13169C41.9644 3.69335 40.7912 2.52734 39.344 2.52734C37.8968 2.52734 36.7236 3.69335 36.7236 5.13169C36.7236 6.57003 37.8968 7.73604 39.344 7.73604Z" fill="white"/>
<path d="M124.689 119.718H54.755C54.2888 119.718 53.8417 119.533 53.512 119.205C53.1823 118.878 52.9969 118.434 52.9963 117.97V34.686C52.9969 34.2226 53.1823 33.7783 53.512 33.4506C53.8417 33.123 54.2888 32.9386 54.755 32.9381H124.689C125.156 32.9386 125.603 33.123 125.932 33.4507C126.262 33.7783 126.448 34.2226 126.448 34.686V117.97C126.448 118.434 126.262 118.878 125.932 119.205C125.603 119.533 125.156 119.717 124.689 119.718Z" fill="#E6E6E6"/>
<path d="M92.5153 28.8253H48.9615C48.029 28.8266 47.1351 29.1954 46.4758 29.8507C45.8164 30.506 45.4454 31.3944 45.4441 32.3212V116.181L45.8579 116.056V32.3212C45.8589 31.5034 46.1862 30.7194 46.768 30.1412C47.3499 29.5629 48.1387 29.2376 48.9615 29.2366H92.6436L92.5153 28.8253ZM130.483 28.8253H48.9615C48.029 28.8266 47.1351 29.1954 46.4758 29.8507C45.8164 30.506 45.4454 31.3944 45.4441 32.3212V126.504C45.4454 127.431 45.8164 128.319 46.4758 128.975C47.1351 129.63 48.029 129.999 48.9615 130H130.483C131.415 129.999 132.309 129.63 132.968 128.975C133.628 128.319 133.999 127.431 134 126.504V32.3212C133.999 31.3944 133.628 30.506 132.968 29.8507C132.309 29.1954 131.415 28.8266 130.483 28.8253ZM133.586 126.504C133.585 127.322 133.258 128.106 132.676 128.684C132.094 129.262 131.305 129.588 130.483 129.589H48.9615C48.1387 129.588 47.3499 129.262 46.768 128.684C46.1862 128.106 45.8589 127.322 45.8579 126.504V32.3212C45.8589 31.5034 46.1862 30.7194 46.768 30.1412C47.3499 29.5629 48.1387 29.2376 48.9615 29.2366H130.483C131.305 29.2376 132.094 29.5629 132.676 30.1412C133.258 30.7194 133.585 31.5034 133.586 32.3212V126.504Z" fill="#3F3D56"/>
<path d="M108.757 37.8734H70.6866C70.1929 37.8729 69.7196 37.6777 69.3705 37.3308C69.0214 36.9838 68.825 36.5134 68.8245 36.0227V26.9745C68.825 26.4839 69.0214 26.0134 69.3705 25.6665C69.7196 25.3195 70.1929 25.1243 70.6866 25.1238H108.757C109.251 25.1243 109.724 25.3195 110.073 25.6665C110.423 26.0134 110.619 26.4839 110.62 26.9745V36.0227C110.619 36.5134 110.423 36.9838 110.074 37.3308C109.724 37.6777 109.251 37.8729 108.757 37.8734Z" fill="#FF7C10"/>
<path d="M89.7221 25.7407C92.0075 25.7407 93.8602 23.8994 93.8602 21.6279C93.8602 19.3565 92.0075 17.5151 89.7221 17.5151C87.4367 17.5151 85.584 19.3565 85.584 21.6279C85.584 23.8994 87.4367 25.7407 89.7221 25.7407Z" fill="#FF7C10"/>
<path d="M89.7222 24.133C91.1142 24.133 92.2427 23.0114 92.2427 21.6279C92.2427 20.2444 91.1142 19.1228 89.7222 19.1228C88.3301 19.1228 87.2017 20.2444 87.2017 21.6279C87.2017 23.0114 88.3301 24.133 89.7222 24.133Z" fill="white"/>
</g>
<defs>
<clipPath id="clip0_263_2178">
<rect width="134" height="130" fill="white"/>
</clipPath>
</defs>
</svg>
