<svg width="20" height="20" viewBox="0 0 20 20" fill="none" xmlns="http://www.w3.org/2000/svg">
<g clip-path="url(#clip0_34_2965)">
<path d="M2.74522 9.79375C2.30928 9.16718 2.13428 8.57656 2.56084 8.21875C2.92178 7.91562 3.45303 7.85781 4.10928 8.61562C4.10928 8.61562 6.07022 10.8937 6.74522 11.5266C6.89834 11.6687 7.08897 11.6906 7.26241 11.5109C7.40928 11.3578 7.35616 11.225 7.23116 11.0422C7.23116 11.0422 4.46709 6.93281 4.10459 6.43125C3.49991 5.59218 3.73272 5.05 4.01241 4.79218C4.40147 4.43125 5.08584 4.35937 5.72178 5.23125L9.06866 9.71093C9.17022 9.81875 9.33428 9.83437 9.45459 9.75L9.50147 9.71718C9.62491 9.62968 9.66084 9.4625 9.58584 9.33125C8.99991 8.31093 6.66866 4.24531 6.32647 3.50468C5.93272 2.65 6.10147 2.21562 6.51866 1.96406C7.01397 1.66562 7.47959 1.6875 8.03584 2.51406C8.63897 3.41406 10.9812 7.20312 11.5765 8.22187C11.6546 8.35468 11.8218 8.40468 11.9593 8.3375C11.9608 8.33593 11.964 8.33593 11.9655 8.33437C12.0968 8.27031 12.2155 8.14062 12.1608 7.95625C11.8358 6.88437 10.2405 3.54687 9.90616 2.77968C9.44834 1.73125 9.67178 1.375 10.1452 1.13437C10.6421 0.882809 11.1593 1.08125 11.5108 1.78125C11.7483 2.25625 15.9187 9.84531 15.9187 9.84531C15.8577 8.71406 16.1437 7.9125 16.3874 7.10781C16.8312 5.64375 17.9046 4.88281 18.6827 5.225C19.0874 5.40312 19.1608 5.75781 19.1171 6.02968C19.0296 6.55781 18.6577 8.19375 18.5858 9.475C18.4171 12.4781 19.3249 15.9391 15.9421 18.1141C13.678 19.5703 11.2515 19.3141 9.64834 18.1937C7.70459 16.8359 3.10147 10.3062 2.74522 9.79375Z" fill="#FFCA28"/>
<path d="M18.3876 8.08906C18.1048 9.27812 18.0673 10.7375 18.0767 11.3594C18.1142 13.7828 18.1017 15.8797 15.672 17.7953C15.3735 18.0312 14.4376 18.6062 13.3485 18.9062C12.9985 19.0016 13.1313 19.1141 13.347 19.0891C14.536 18.9516 15.4376 18.4391 15.9392 18.1156C19.3204 15.9406 18.4892 12.5031 18.6579 9.49999C18.7298 8.21874 19.1204 6.20312 19.1142 6.02968C19.1063 5.85624 18.6704 6.89999 18.3876 8.08906ZM12.1142 8.21406C12.1142 8.21406 11.872 8.21562 11.6423 7.8953C10.9532 6.93749 8.79229 3.3203 8.17041 2.43281C7.46104 1.42031 6.8001 1.80781 6.6501 1.88906C6.6501 1.88906 7.19385 1.90781 7.49385 2.35312C8.10635 3.26093 10.4282 7.32968 11.161 8.20312C11.6345 8.76718 12.1142 8.21406 12.1142 8.21406ZM3.54853 8.52187C3.76103 8.74999 5.62666 10.9641 6.31416 11.5812C6.90479 12.1109 7.34541 11.4359 7.34541 11.4359C7.34541 11.4359 7.12822 11.4656 6.83135 11.2422C6.09385 10.6844 4.34697 8.69531 3.95322 8.27656C3.36885 7.65468 2.8251 8.04374 2.70947 8.11406C2.71104 8.11406 3.04541 7.98437 3.54853 8.52187ZM9.62354 9.57187C9.62354 9.57187 9.42353 9.71718 9.05635 9.28749C8.78916 8.97343 5.72197 5.23124 5.72197 5.23124C4.95322 4.29218 4.34854 4.57187 4.22354 4.64374C4.22354 4.64374 4.60947 4.62343 5.06104 5.14374C5.26729 5.38124 8.54072 9.55468 8.67197 9.69687C9.15166 10.2203 9.59541 9.7703 9.62354 9.57187Z" fill="#EDA600"/>
<path d="M15.9063 9.03595C15.9063 9.03595 11.8422 2.22189 11.5829 1.75782C11.0063 0.728136 10.336 1.04376 10.2219 1.09532C10.2219 1.09532 10.5954 0.989074 11.0344 1.73595C11.2688 2.13282 14.2547 7.50157 15.2079 9.2172C15.2829 9.53751 15.2766 9.9547 15.036 10.2234C14.1735 11.1906 13.0735 12.1781 13.3969 14.6266C13.4782 15.2469 13.7079 15.8344 13.8782 16.1172C14.0938 16.4719 14.3422 16.3375 14.2329 16.0719C14.1594 15.8922 14.0422 15.4688 14.0188 15.2875C13.9094 14.4438 13.5407 12.9688 15.1938 11.2C15.4735 10.9047 16.1844 10.0125 15.9063 9.03595Z" fill="#EDA600"/>
<path d="M16.1703 4.83751C15.9531 4.06719 15.6156 3.36094 15.1781 2.74845C14.7844 2.19688 14.3078 1.72188 13.7641 1.34063C13.6953 1.29219 13.6078 1.14219 13.6828 0.996882C13.7578 0.85157 13.9203 0.87032 13.9812 0.89532C14.6609 1.17501 15.2172 1.65782 15.6766 2.32032C16.2219 3.10782 16.4922 3.85001 16.6312 4.67969C16.6469 4.77032 16.6437 4.96094 16.45 5.01094C16.2578 5.06094 16.1922 4.91251 16.1703 4.83751ZM15.1078 5.66407C14.8906 4.89376 14.5531 4.18751 14.1156 3.57501C13.7219 3.02344 13.2453 2.54844 12.7016 2.16719C12.6328 2.11876 12.5453 1.96876 12.6203 1.82344C12.6953 1.67657 12.8578 1.69688 12.9187 1.72188C13.5984 2.00157 14.1547 2.48438 14.6141 3.14688C15.1594 3.93438 15.4297 4.67657 15.5687 5.50626C15.5844 5.59688 15.5812 5.78751 15.3875 5.83751C15.1969 5.88751 15.1297 5.74063 15.1078 5.66407ZM1.33749 12.1031C1.60624 12.8578 1.98905 13.5391 2.46562 14.1219C2.8953 14.6453 3.40155 15.0891 3.96874 15.4344C4.04062 15.4781 4.13749 15.6219 4.07187 15.7719C4.00624 15.9234 3.84374 15.9141 3.77968 15.8938C3.0828 15.6594 2.4953 15.2141 1.99374 14.5828C1.39843 13.8328 1.07812 13.1109 0.884366 12.2922C0.862491 12.2016 0.853116 12.0125 1.04374 11.95C1.23437 11.8875 1.31093 12.0297 1.33749 12.1031ZM2.34218 11.2078C2.61093 11.9625 2.99374 12.6438 3.4703 13.2266C3.89999 13.75 4.40624 14.1938 4.97343 14.5391C5.0453 14.5828 5.14218 14.7266 5.07655 14.8766C5.01093 15.0281 4.84843 15.0188 4.78437 14.9984C4.08749 14.7641 3.49999 14.3188 2.99843 13.6875C2.40312 12.9375 2.0828 12.2156 1.88905 11.3969C1.86718 11.3063 1.8578 11.1172 2.04843 11.0547C2.23905 10.9906 2.31562 11.1344 2.34218 11.2078Z" fill="#B0BEC5"/>
</g>
<defs>
<clipPath id="clip0_34_2965">
<rect width="20" height="20" fill="white"/>
</clipPath>
</defs>
</svg>
